<?xml version="1.0" standalone="no"?>
<!DOCTYPE svg PUBLIC "-//W3C//DTD SVG 20010904//EN"
 "http://www.w3.org/TR/2001/REC-SVG-20010904/DTD/svg10.dtd">
<svg version="1.0" xmlns="http://www.w3.org/2000/svg"
 width="512.000000pt" height="512.000000pt" viewBox="0 0 512.000000 512.000000"
 preserveAspectRatio="xMidYMid meet">
<metadata>
Created by potrace 1.14, written by Peter Selinger 2001-2017
</metadata>
<g transform="translate(0.000000,512.000000) scale(0.100000,-0.100000)"
fill="#000000" stroke="none">
<path d="M0 2560 l0 -2560 2560 0 2560 0 0 2560 0 2560 -2560 0 -2560 0 0
-2560z m2044 668 c263 -832 484 -1526 491 -1543 14 -35 -50 -228 575 1727
l425 1328 499 0 c394 0 497 -3 493 -12 -2 -7 -48 -146 -102 -308 -53 -162
-378 -1142 -721 -2178 l-625 -1882 -544 0 -544 0 -34 108 c-19 59 -337 1041
-706 2183 -369 1141 -671 2079 -671 2082 0 4 222 7 493 7 l493 0 478 -1512z"/>
</g>
</svg>
